<svg xmlns="http://www.w3.org/2000/svg" viewBox="0 0 24 24"><defs>
<linearGradient id="body" x1="0" y1="0" x2="1" y2="1"><stop stop-color="#CA8A04"/><stop offset="1" stop-color="#CA8A04"/></linearGradient>
<linearGradient id="orbit" gradientUnits="userSpaceOnUse" x1="1" y1="9" x2="23" y2="16"><stop stop-color="#91ECE1"/><stop offset="1" stop-color="#35BFB8"/></linearGradient>
</defs><g fill="none" stroke="url(#body)" stroke-width="3.5" opacity=".16" stroke-linecap="round" stroke-linejoin="round"><path d="m12 3 9 5v9l-9 5-9-5V8l9-5Zm-9 5 9 5 9-5m-9 5v9M7.5 5.5l9 5v4"/></g><g fill="none" stroke="url(#body)" stroke-width="2.1" stroke-linecap="round" stroke-linejoin="round"><path d="m12 3 9 5v9l-9 5-9-5V8l9-5Zm-9 5 9 5 9-5m-9 5v9M7.5 5.5l9 5v4"/></g></svg>
