<svg xmlns="http://www.w3.org/2000/svg" viewBox="0 0 24 24"><defs>
<linearGradient id="body" x1="0" y1="0" x2="1" y2="1"><stop stop-color="#B77C30"/><stop offset="1" stop-color="#B04C05"/></linearGradient>
<linearGradient id="orbit" gradientUnits="userSpaceOnUse" x1="1" y1="9" x2="23" y2="16"><stop stop-color="#B7A460"/><stop offset="1" stop-color="#B2871A"/></linearGradient>
</defs><g fill="none" stroke="url(#body)" stroke-width="3.5" opacity=".16" stroke-linecap="round" stroke-linejoin="round"><path d="M9 3H6v7l-3 2 3 2v7h3m6-18h3v7l3 2-3 2v7h-3M11 9h2m-2 6h2"/></g><g fill="none" stroke="url(#body)" stroke-width="2.1" stroke-linecap="round" stroke-linejoin="round"><path d="M9 3H6v7l-3 2 3 2v7h3m6-18h3v7l3 2-3 2v7h-3M11 9h2m-2 6h2"/></g></svg>
